<svg width="124" height="124" viewBox="0 0 124 124" fill="none" xmlns="http://www.w3.org/2000/svg">
<path fill-rule="evenodd" clip-rule="evenodd" d="M1.01257 1H83.8544L122.899 40.5258V122.061H40.4709L1.01257 84.6042V1ZM4.31798 4.30541V83.1844L41.7899 118.755H119.594V41.8831L82.4734 4.30541H4.31798Z" fill="black"/>
<path d="M37.5333 79.1025V83.2836H35.1204V71.8307H39.5C40.6899 71.8307 41.632 72.1558 42.3261 72.8058C43.0203 73.4559 43.3674 74.3428 43.3674 75.4667C43.3674 76.5905 43.0203 77.4774 42.3261 78.1271C41.632 78.7776 40.6899 79.1025 39.5 79.1025H37.5333ZM37.5333 77.2516H39.219C39.7699 77.2516 40.1886 77.1028 40.4751 76.8054C40.7726 76.4969 40.9214 76.0506 40.9214 75.4667C40.9214 74.8827 40.7726 74.442 40.4751 74.1445C40.1886 73.836 39.7699 73.6818 39.219 73.6818H37.5333V77.2516ZM51.2437 83.2836L50.4338 80.6725H46.5169L45.7401 83.2836H43.1454L47.178 71.8307H49.9049L53.9376 83.2836H51.2437ZM47.0458 78.8877H49.9214L48.4671 74.0949L47.0458 78.8877ZM55.3595 83.2836V71.8307H59.7723C60.9622 71.8307 61.9043 72.1448 62.5984 72.7728C63.2925 73.4008 63.6396 74.2547 63.6396 75.3344C63.6396 75.9955 63.4578 76.5905 63.0942 77.1194C62.7306 77.6479 62.2183 78.0614 61.5572 78.3588L64.3998 83.2836H61.8381L59.359 78.838H57.7394V83.2836H55.3595ZM57.7394 77.1194H59.4583C60.6151 77.1194 61.1935 76.5354 61.1935 75.3675C61.1935 74.2216 60.6261 73.6487 59.4913 73.6487H57.7394V77.1194ZM68.246 83.2836V73.8139H64.7588V71.8307H74.2123V73.8139H70.725V83.2836H68.246ZM77.9097 75.3344V83.2836H75.7279V71.8307H78.3721L83.0325 79.8462V71.8307H85.2141V83.2836H82.5701L77.9097 75.3344ZM87.8649 83.2836V71.8307H95.4009V73.7479H90.3438V76.4583H94.4592V78.3756H90.3438V81.3666H95.4009V83.2836H87.8649ZM97.4196 83.2836V71.8307H101.832C103.023 71.8307 103.964 72.1448 104.658 72.7728C105.352 73.4008 105.699 74.2547 105.699 75.3344C105.699 75.9955 105.518 76.5905 105.154 77.1194C104.791 77.6479 104.278 78.0614 103.617 78.3588L106.46 83.2836H103.898L101.419 78.838H99.7992V83.2836H97.4196ZM99.7992 77.1194H101.518C102.675 77.1194 103.253 76.5354 103.253 75.3675C103.253 74.2216 102.686 73.6487 101.551 73.6487H99.7992V77.1194Z" fill="black"/>
<path d="M63.7101 95.8492C63.9481 95.8492 64.1811 95.827 64.4092 95.7827V94.4213H63.3457V93.7074H65.257V96.2359C65.0339 96.3552 64.7711 96.4492 64.4687 96.5188C64.1712 96.583 63.8638 96.6151 63.5465 96.6151C62.7334 96.6151 62.1136 96.3896 61.6872 95.9386C61.2608 95.4876 61.0476 94.8356 61.0476 93.9826C61.0476 93.115 61.2658 92.4507 61.7021 91.9898C62.1433 91.5236 62.7755 91.2904 63.5986 91.2904C64.1539 91.2904 64.6472 91.3921 65.0786 91.5954V92.317C64.5679 92.1435 64.0969 92.0563 63.6655 92.0563C63.0903 92.0563 62.664 92.2054 62.3863 92.5027C62.1086 92.8001 61.9698 93.264 61.9698 93.8931V94.0498C61.9698 94.669 62.1086 95.1253 62.3863 95.4181C62.6689 95.7055 63.1102 95.8492 63.7101 95.8492ZM66.9339 94.8455C66.9488 95.2224 67.0529 95.4998 67.2463 95.6779C67.4447 95.8515 67.7471 95.9386 68.1536 95.9386C68.5205 95.9386 68.9172 95.869 69.3436 95.7307V96.3475C69.175 96.437 68.9742 96.5065 68.7412 96.5562C68.5131 96.6105 68.2751 96.638 68.0272 96.638C67.4025 96.638 66.929 96.4691 66.6067 96.132C66.2844 95.7949 66.1233 95.3042 66.1233 94.659C66.1233 94.02 66.2795 93.5216 66.5919 93.1647C66.9092 92.8077 67.3504 92.6288 67.9157 92.6288C68.4015 92.6288 68.7734 92.7626 69.0312 93.0309C69.294 93.2931 69.4254 93.6676 69.4254 94.1538C69.4254 94.4114 69.4031 94.6422 69.3584 94.8455H66.9339ZM67.8785 93.2686C67.6107 93.2686 67.3925 93.3581 67.224 93.5362C67.0555 93.715 66.9588 93.955 66.9339 94.2577H68.6519V94.1981C68.6519 93.8962 68.585 93.6653 68.4511 93.5064C68.3223 93.3481 68.1313 93.2686 67.8785 93.2686ZM72.7885 96.5264V94.02C72.7885 93.7769 72.739 93.6011 72.6398 93.4918C72.5406 93.3779 72.3819 93.3206 72.1638 93.3206C71.8365 93.3206 71.5019 93.4299 71.1598 93.6478V96.5264H70.2822V92.7404H71.011L71.1003 93.157C71.5663 92.8054 72.0523 92.6288 72.558 92.6288C72.9199 92.6288 73.1951 92.7259 73.3835 92.9193C73.5719 93.1073 73.6661 93.3825 73.6661 93.7448V96.5264H72.7885ZM75.3298 94.8455C75.3447 95.2224 75.4488 95.4998 75.6422 95.6779C75.8405 95.8515 76.143 95.9386 76.5495 95.9386C76.9164 95.9386 77.3131 95.869 77.7398 95.7307V96.3475C77.5708 96.437 77.3701 96.5065 77.137 96.5562C76.909 96.6105 76.671 96.638 76.4231 96.638C75.7984 96.638 75.3249 96.4691 75.0026 96.132C74.6803 95.7949 74.5192 95.3042 74.5192 94.659C74.5192 94.02 74.6754 93.5216 74.9877 93.1647C75.3051 92.8077 75.7463 92.6288 76.3115 92.6288C76.7974 92.6288 77.1693 92.7626 77.4271 93.0309C77.6901 93.2931 77.8215 93.6676 77.8215 94.1538C77.8215 94.4114 77.7986 94.6422 77.7543 94.8455H75.3298ZM76.2744 93.2686C76.0066 93.2686 75.7885 93.3581 75.6199 93.5362C75.4513 93.715 75.3546 93.955 75.3298 94.2577H77.0478V94.1981C77.0478 93.8962 76.9809 93.6653 76.847 93.5064C76.7181 93.3481 76.5272 93.2686 76.2744 93.2686ZM78.6784 96.5264V92.7404H79.4069L79.5261 93.3061C79.7241 93.0875 79.9098 92.9338 80.0833 92.8444C80.2568 92.7557 80.4456 92.7106 80.649 92.7106C80.743 92.7106 80.8446 92.7183 80.954 92.7328V93.5362C80.8148 93.5117 80.6734 93.4995 80.5297 93.4995C80.1628 93.4995 79.838 93.5935 79.5559 93.7815V96.5264H78.6784ZM83.7485 96.5264L83.6812 96.1618C83.5077 96.3101 83.3143 96.427 83.1011 96.5111C82.8932 96.5952 82.6845 96.638 82.4766 96.638C82.1296 96.638 81.8467 96.5333 81.6289 96.3254C81.4156 96.1175 81.3086 95.8469 81.3086 95.5144C81.3086 95.1475 81.4401 94.8555 81.703 94.6369C81.9706 94.419 82.3275 94.3097 82.7739 94.3097C83.0369 94.3097 83.3243 94.3472 83.6369 94.4213V93.9826C83.6369 93.7295 83.5819 93.5537 83.4733 93.4544C83.364 93.3558 83.1729 93.3061 82.9008 93.3061C82.514 93.3061 82.0699 93.3879 81.5693 93.5514V92.9338C81.7527 92.8398 81.9759 92.7657 82.2389 92.7106C82.5064 92.6564 82.7739 92.6288 83.0415 92.6288C83.5276 92.6288 83.8846 92.7282 84.1124 92.9262C84.3455 93.1249 84.4624 93.4345 84.4624 93.8564V96.5264H83.7485ZM82.722 96.0127C82.8657 96.0127 83.017 95.9829 83.176 95.9241C83.3342 95.8591 83.4879 95.7697 83.6369 95.6558V94.9418C83.374 94.8876 83.1408 94.8601 82.9375 94.8601C82.4223 94.8601 82.164 95.0611 82.164 95.4624C82.164 95.6359 82.2136 95.7727 82.313 95.8713C82.4124 95.9661 82.5484 96.0127 82.722 96.0127ZM87.6988 96.437C87.4412 96.531 87.1637 96.5784 86.8656 96.5784C86.4743 96.5784 86.1846 96.4867 85.9958 96.3032C85.8077 96.1198 85.713 95.8392 85.713 95.4624V93.41H85.0739V92.8597L85.7428 92.7626L85.8765 91.6994H86.5905V92.7404H87.669V93.41H86.5905V95.4181C86.5905 95.5862 86.6302 95.7078 86.7097 95.7827C86.7938 95.8515 86.9329 95.8866 87.1263 95.8866C87.3342 95.8866 87.5253 95.8667 87.6988 95.827V96.437ZM88.4326 96.5264V92.7404H89.3101V96.5264H88.4326ZM88.8714 92.1159C88.7078 92.1159 88.5794 92.0716 88.4846 91.9822C88.3906 91.8927 88.3432 91.7689 88.3432 91.6099C88.3432 91.4517 88.3906 91.3279 88.4846 91.2384C88.5794 91.149 88.7078 91.1047 88.8714 91.1047C89.0349 91.1047 89.1641 91.149 89.2581 91.2384C89.3522 91.3279 89.3996 91.4517 89.3996 91.6099C89.3996 91.7689 89.3522 91.8927 89.2581 91.9822C89.1641 92.0716 89.0349 92.1159 88.8714 92.1159ZM91.3892 96.5264L89.9239 92.7404H90.861L91.8203 95.7376L92.7949 92.7404H93.6946L92.2369 96.5264H91.3892ZM94.8304 94.8455C94.8457 95.2224 94.9497 95.4998 95.1431 95.6779C95.3411 95.8515 95.6437 95.9386 96.0504 95.9386C96.4173 95.9386 96.814 95.869 97.2405 95.7307V96.3475C97.0716 96.437 96.8706 96.5065 96.6382 96.5562C96.4096 96.6105 96.1719 96.638 95.9243 96.638C95.299 96.638 94.8259 96.4691 94.5033 96.132C94.1815 95.7949 94.0202 95.3042 94.0202 94.659C94.0202 94.02 94.1761 93.5216 94.4888 93.1647C94.806 92.8077 95.247 92.6288 95.8127 92.6288C96.298 92.6288 96.6703 92.7626 96.9279 93.0309C97.1908 93.2931 97.3223 93.6676 97.3223 94.1538C97.3223 94.4114 97.3001 94.6422 97.255 94.8455H94.8304ZM95.7752 93.2686C95.5077 93.2686 95.2891 93.3581 95.1209 93.5362C94.952 93.715 94.8557 93.955 94.8304 94.2577H96.5488V94.1981C96.5488 93.8962 96.4815 93.6653 96.3477 93.5064C96.2185 93.3481 96.0282 93.2686 95.7752 93.2686ZM103.413 96.5264L102.981 95.2323H101.003L100.586 96.5264H99.6491L101.523 91.3722H102.506L104.372 96.5264H103.413ZM101.218 94.5704H102.773L101.992 92.1901L101.218 94.5704ZM105.074 96.5264V91.3722H105.981V96.5264H105.074ZM68.1751 105.557C67.7834 105.711 67.3372 105.788 66.8364 105.788C66.0134 105.788 65.3911 105.57 64.9697 105.133C64.5532 104.697 64.345 104.052 64.345 103.199C64.345 102.322 64.5606 101.648 64.9919 101.177C65.4283 100.701 66.0531 100.463 66.8661 100.463C67.3124 100.463 67.7239 100.529 68.1007 100.664V101.408C67.6099 101.303 67.2256 101.251 66.948 101.251C66.3877 101.251 65.9712 101.398 65.6985 101.69C65.4258 101.983 65.2894 102.433 65.2894 103.043V103.222C65.2894 103.827 65.4234 104.276 65.691 104.568C65.9638 104.856 66.3778 105 66.9331 105C67.2455 105 67.6595 104.938 68.1751 104.814V105.557ZM70.5892 105.811C70.0141 105.811 69.5654 105.634 69.2432 105.282C68.9208 104.925 68.7597 104.432 68.7597 103.802C68.7597 103.173 68.9208 102.682 69.2432 102.33C69.5654 101.978 70.0141 101.801 70.5892 101.801C71.1644 101.801 71.6131 101.978 71.9354 102.33C72.2576 102.682 72.4188 103.173 72.4188 103.802C72.4188 104.432 72.2576 104.925 71.9354 105.282C71.6131 105.634 71.1644 105.811 70.5892 105.811ZM70.5892 105.119C71.214 105.119 71.5264 104.68 71.5264 103.802C71.5264 102.93 71.214 102.493 70.5892 102.493C69.9645 102.493 69.6522 102.93 69.6522 103.802C69.6522 104.68 69.9645 105.119 70.5892 105.119ZM78.086 105.699V103.133C78.086 102.905 78.0409 102.741 77.9522 102.642C77.8628 102.543 77.7168 102.493 77.5135 102.493C77.3595 102.493 77.1958 102.521 77.0223 102.575C76.8488 102.625 76.6975 102.689 76.5687 102.768V105.699H75.6911V103.133C75.6911 102.905 75.6464 102.741 75.5572 102.642C75.4679 102.543 75.3216 102.493 75.1184 102.493C74.9746 102.493 74.8185 102.518 74.6498 102.567C74.4863 102.612 74.3276 102.679 74.1739 102.768V105.699H73.2963V101.913H74.0251L74.1069 102.292C74.3549 102.124 74.5878 102 74.806 101.921C75.0291 101.841 75.2522 101.801 75.4754 101.801C75.9365 101.801 76.2538 101.973 76.4273 102.315C76.9232 101.973 77.3991 101.801 77.8552 101.801C78.2076 101.801 78.4797 101.898 78.6731 102.092C78.8664 102.28 78.9635 102.555 78.9635 102.917V105.699H78.086ZM80.0145 107.231V101.913H80.743L80.8248 102.292C80.9983 102.134 81.1894 102.012 81.3981 101.928C81.6113 101.843 81.8315 101.801 82.06 101.801C82.5309 101.801 82.9046 101.978 83.1829 102.33C83.4649 102.682 83.6063 103.155 83.6063 103.75C83.6063 104.146 83.5421 104.499 83.413 104.806C83.2845 105.109 83.098 105.347 82.8557 105.52C82.6127 105.694 82.3275 105.781 82.0004 105.781C81.7917 105.781 81.5914 105.746 81.3981 105.676C81.2047 105.602 81.0357 105.5 80.892 105.372V107.231H80.0145ZM81.7848 102.493C81.4623 102.493 81.1649 102.587 80.892 102.776V104.798C81.1695 104.992 81.4646 105.089 81.7772 105.089C82.0944 105.089 82.3298 104.982 82.4835 104.769C82.6371 104.551 82.7143 104.221 82.7143 103.78C82.7143 103.344 82.6371 103.021 82.4835 102.813C82.3352 102.6 82.102 102.493 81.7848 102.493ZM85.0984 104.018C85.1129 104.395 85.2176 104.672 85.411 104.85C85.609 105.024 85.9117 105.111 86.3183 105.111C86.6852 105.111 87.082 105.042 87.5077 104.903V105.52C87.3396 105.609 87.1385 105.679 86.9054 105.729C86.6776 105.783 86.4399 105.811 86.1915 105.811C85.567 105.811 85.0931 105.642 84.7713 105.304C84.4487 104.967 84.2874 104.477 84.2874 103.832C84.2874 103.193 84.4441 102.694 84.756 102.337C85.0739 101.98 85.515 101.801 86.0799 101.801C86.566 101.801 86.9375 101.935 87.1959 102.203C87.4588 102.466 87.5895 102.84 87.5895 103.326C87.5895 103.584 87.5673 103.815 87.523 104.018H85.0984ZM86.0432 102.441C85.7749 102.441 85.557 102.531 85.3881 102.709C85.2199 102.888 85.1229 103.128 85.0984 103.43H86.8167V103.371C86.8167 103.069 86.7495 102.838 86.6157 102.679C86.4865 102.521 86.2954 102.441 86.0432 102.441ZM90.6333 105.609C90.3757 105.704 90.0974 105.751 89.8001 105.751C89.4087 105.751 89.1183 105.659 88.9302 105.476C88.7414 105.292 88.6474 105.012 88.6474 104.635V102.583H88.0076V102.032L88.6772 101.935L88.811 100.872H89.5249V101.913H90.6034V102.583H89.5249V104.591C89.5249 104.759 89.5647 104.88 89.6442 104.955C89.7282 105.024 89.8673 105.059 90.0607 105.059C90.2686 105.059 90.4597 105.039 90.6333 105V105.609ZM91.9549 104.018C91.9694 104.395 92.0733 104.672 92.2667 104.85C92.4655 105.024 92.7674 105.111 93.174 105.111C93.5409 105.111 93.9377 105.042 94.3642 104.903V105.52C94.1952 105.609 93.995 105.679 93.7618 105.729C93.5341 105.783 93.2956 105.811 93.0479 105.811C92.4234 105.811 91.9495 105.642 91.6269 105.304C91.3051 104.967 91.1439 104.477 91.1439 103.832C91.1439 103.193 91.2998 102.694 91.6124 102.337C91.9296 101.98 92.3707 101.801 92.9363 101.801C93.4225 101.801 93.7939 101.935 94.0515 102.203C94.3145 102.466 94.446 102.84 94.446 103.326C94.446 103.584 94.4238 103.815 94.3787 104.018H91.9549ZM92.8989 102.441C92.6313 102.441 92.4135 102.531 92.2446 102.709C92.0756 102.888 91.9793 103.128 91.9549 103.43H93.6724V103.371C93.6724 103.069 93.6059 102.838 93.4714 102.679C93.343 102.521 93.1519 102.441 92.8989 102.441ZM97.8092 105.699V103.193C97.8092 102.949 97.7595 102.774 97.6602 102.664C97.5616 102.55 97.4026 102.493 97.1847 102.493C96.8568 102.493 96.5228 102.602 96.1803 102.82V105.699H95.3028V101.913H96.0313L96.1207 102.33C96.587 101.978 97.0731 101.801 97.5784 101.801C97.9407 101.801 98.2159 101.898 98.4039 102.092C98.5927 102.28 98.6867 102.555 98.6867 102.917V105.699H97.8092ZM102.395 105.55C102.103 105.704 101.753 105.781 101.347 105.781C100.767 105.781 100.321 105.612 100.008 105.275C99.6957 104.938 99.5398 104.459 99.5398 103.839C99.5398 103.205 99.7011 102.712 100.023 102.359C100.345 102.007 100.796 101.831 101.377 101.831C101.739 101.831 102.068 101.905 102.366 102.054V102.672C102.034 102.577 101.751 102.531 101.518 102.531C101.146 102.531 100.871 102.632 100.692 102.836C100.519 103.034 100.433 103.344 100.433 103.765V103.861C100.433 104.278 100.519 104.585 100.692 104.784C100.871 104.982 101.146 105.081 101.518 105.081C101.786 105.081 102.078 105.032 102.395 104.932V105.55ZM104.274 105.743L102.794 101.913H103.731L104.69 104.91L105.665 101.913H106.564L104.869 106.301C104.73 106.663 104.566 106.923 104.378 107.082C104.189 107.241 103.944 107.32 103.642 107.32C103.419 107.32 103.21 107.283 103.017 107.209V106.599C103.136 106.623 103.262 106.636 103.396 106.636C103.609 106.636 103.768 106.596 103.872 106.517C103.976 106.443 104.078 106.271 104.177 106.004L104.274 105.743Z" fill="black"/>
<path d="M27.1696 27.3562C27.1696 27.8675 27.2269 28.2803 27.3271 28.5827C27.4417 28.8867 27.585 29.2183 27.7855 29.5776C27.8571 29.6864 27.8857 29.7969 27.8857 29.8937C27.8857 30.0318 27.7998 30.17 27.6136 30.3082L26.713 30.8869C26.6042 30.9626 26.4747 31.0059 26.3406 31.0112C26.1974 31.0112 26.0541 30.9421 25.9127 30.8178C25.7203 30.6182 25.5483 30.4013 25.3988 30.17C25.2388 29.9052 25.0906 29.6337 24.9548 29.3565C23.8411 30.6243 22.4393 31.2583 20.7527 31.2583C19.553 31.2583 18.5951 30.9284 17.8951 30.2668C17.195 29.6035 16.8387 28.7225 16.8387 27.6188C16.8387 26.4477 17.2666 25.4942 18.1386 24.779C19.0106 24.0622 20.1671 23.703 21.6389 23.703C22.1259 23.703 22.6255 23.7444 23.1536 23.8135C23.6836 23.8826 24.2279 23.9931 24.7973 24.1175V23.1105C24.7973 22.062 24.5699 21.3313 24.1259 20.9047C23.6693 20.4763 22.8976 20.2708 21.7982 20.2708C21.297 20.2708 20.7813 20.3243 20.2531 20.4487C19.725 20.5731 19.2093 20.725 18.7098 20.9185C18.5469 20.9889 18.3794 21.0489 18.2084 21.0981C18.1348 21.121 18.0583 21.1344 17.981 21.1379C17.7805 21.1379 17.6802 20.9997 17.6802 20.7112V20.0359C17.6802 19.8147 17.7089 19.6489 17.7805 19.5522C17.8887 19.4268 18.0261 19.3279 18.1816 19.2637C18.6811 19.015 19.2809 18.8077 19.9809 18.6419C20.7097 18.4619 21.4596 18.3742 22.2119 18.3811C23.9127 18.3811 25.1553 18.7542 25.9557 19.4987C26.7417 20.2414 27.1409 21.3728 27.1409 22.8894V27.3562H27.1696ZM21.3685 29.4532C21.8394 29.4532 22.3247 29.3703 22.8403 29.2045C23.3541 29.0387 23.8125 28.7364 24.1975 28.3235C24.4266 28.061 24.5985 27.7708 24.6845 27.4392C24.7686 27.1092 24.8277 26.7085 24.8277 26.2404V25.6617C24.3939 25.5597 23.9546 25.4813 23.5117 25.4269C23.0663 25.3722 22.6178 25.3445 22.1689 25.3439C21.211 25.3439 20.511 25.5235 20.0383 25.8966C19.5673 26.268 19.34 26.7914 19.34 27.4806C19.34 28.1284 19.5101 28.612 19.8682 28.9419C20.2101 29.2874 20.7097 29.4532 21.3685 29.4532ZM32.8452 30.9421C32.5874 30.9421 32.4156 30.9007 32.301 30.804C32.1864 30.7211 32.0861 30.5276 32.0002 30.2668L28.6431 19.6074C28.5778 19.4287 28.5345 19.2432 28.5142 19.0547C28.5142 18.8337 28.6288 18.7093 28.8562 18.7093H30.2581C30.5284 18.7093 30.7146 18.7524 30.8131 18.8474C30.9295 18.9303 31.0155 19.1238 31.0996 19.3864L33.5024 28.5136L35.7315 19.3864C35.8031 19.11 35.889 18.9303 36.0018 18.8474C36.1736 18.7458 36.3736 18.6976 36.5748 18.7093H37.7171C37.9892 18.7093 38.1754 18.7524 38.29 18.8474C38.4028 18.9303 38.5048 19.1238 38.5603 19.3864L40.8182 28.6241L43.2907 19.3864C43.3767 19.11 43.4769 18.9303 43.5772 18.8474C43.743 18.7458 43.9379 18.6975 44.134 18.7093H45.4643C45.6917 18.7093 45.8224 18.8215 45.8224 19.0547C45.8224 19.1238 45.8062 19.1929 45.7919 19.2758C45.7696 19.3937 45.736 19.5093 45.6917 19.6213L42.2487 30.2789C42.1628 30.5553 42.0625 30.7332 41.9479 30.8161C41.7865 30.9159 41.5967 30.9643 41.4053 30.9543H40.1753C39.9049 30.9543 39.7187 30.9128 39.6024 30.8161C39.4896 30.7193 39.3894 30.5397 39.3338 30.2634L37.1173 21.3711L34.915 30.2495C34.8434 30.5259 34.7592 30.7056 34.6465 30.8023C34.5301 30.899 34.3296 30.9405 34.0735 30.9405L32.8452 30.9421ZM51.208 31.3135C50.465 31.3135 49.722 31.2306 49.0076 31.0666C48.2932 30.9007 47.7364 30.7211 47.364 30.5138C47.1348 30.3912 46.979 30.253 46.9217 30.1286C46.8659 30.0067 46.8366 29.875 46.8358 29.7417V29.0387C46.8358 28.7502 46.9504 28.612 47.1635 28.612C47.2494 28.612 47.3353 28.6258 47.4213 28.6534C47.5072 28.6811 47.6361 28.7364 47.7793 28.7916C48.2646 28.9989 48.7927 29.163 49.3513 29.2736C49.9225 29.3841 50.4793 29.4394 51.0522 29.4394C51.9511 29.4394 52.6529 29.2874 53.1381 28.9834C53.3707 28.8478 53.562 28.6553 53.6925 28.4253C53.823 28.1953 53.8881 27.9362 53.8812 27.674C53.8864 27.4966 53.855 27.3198 53.789 27.154C53.7229 26.9883 53.6234 26.8369 53.4963 26.7085C53.2384 26.4477 52.7514 26.2128 52.0513 25.9917L49.9798 25.3698C48.936 25.0537 48.1643 24.5856 47.6934 23.9655C47.2326 23.3932 46.9808 22.6899 46.9773 21.9652C46.9773 21.3866 47.1079 20.8771 47.364 20.4349C47.6218 19.9944 47.9638 19.6074 48.3935 19.3052C48.8232 18.9874 49.3066 18.7524 49.8795 18.5884C50.4525 18.4225 51.0523 18.3534 51.6807 18.3534C51.994 18.3534 52.3235 18.3672 52.6386 18.4087C52.9662 18.4502 53.2653 18.5054 53.566 18.5607C53.8525 18.6298 54.1246 18.6989 54.3807 18.7801C54.6385 18.863 54.839 18.9459 54.9823 19.0288C55.151 19.1107 55.298 19.2289 55.412 19.3743C55.5043 19.5084 55.5489 19.6678 55.5391 19.8286V20.4763C55.5391 20.7665 55.4245 20.9185 55.2097 20.9185C55.0194 20.8975 54.8352 20.8411 54.6672 20.7527C53.8038 20.3847 52.868 20.2014 51.9242 20.2155C51.1096 20.2155 50.465 20.3381 50.0228 20.6007C49.5787 20.8632 49.3513 21.2622 49.3513 21.8271C49.3513 22.214 49.4946 22.5456 49.7811 22.8065C50.0657 23.069 50.5939 23.3315 51.3513 23.5665L53.3817 24.1849C54.4094 24.5027 55.1542 24.9449 55.5964 25.5097C56.0386 26.0746 56.2535 26.7223 56.2535 27.4392C56.2535 28.0316 56.1246 28.5706 55.8829 29.0387C55.625 29.5085 55.2813 29.9213 54.839 30.253C54.395 30.5985 53.8668 30.8454 53.2527 31.0251C52.6082 31.2169 51.9385 31.3135 51.208 31.3135Z" fill="#252F3E"/>
<path d="M53.9099 38.0156C49.2082 41.3666 42.3759 43.1441 36.5032 43.1441C28.2708 43.1441 20.8548 40.2076 15.2507 35.3262C14.8084 34.9409 15.2077 34.4159 15.7377 34.7199C21.7965 38.1106 29.2716 40.1661 37.0028 40.1661C42.2201 40.1661 47.9495 39.1176 53.2241 36.9671C54.0101 36.6216 54.6816 37.4628 53.9099 38.0156ZM55.8686 35.8634C55.267 35.1206 51.8938 35.5058 50.3648 35.6854C49.9083 35.7407 49.8366 35.3538 50.252 35.0636C52.9376 33.2447 57.3547 33.7681 57.8686 34.3744C58.3824 34.9963 57.7253 39.2558 55.2098 41.2958C54.8248 41.6136 54.4523 41.4478 54.6242 41.035C55.1972 39.6704 56.4684 36.5957 55.8686 35.8634Z" fill="#FF9900"/>
</svg>
