<svg width="271" height="113" viewBox="0 0 271 113" fill="none" xmlns="http://www.w3.org/2000/svg">
<g clip-path="url(#clip0_31_527)">
<path d="M269.141 97H0.85856C0.377766 97 0 96.56 0 96C0 95.44 0.377766 95 0.85856 95H269.141C269.622 95 270 95.44 270 96C270 96.56 269.622 97 269.141 97Z" fill="#232F5B"/>
<path d="M138.48 48.6362C138.48 70.8562 120.46 88.8762 98.24 88.8762C76.02 88.8762 58 70.8562 58 48.6362H138.48Z" fill="url(#paint0_linear_31_527)"/>
<path d="M98.1786 25C89.9496 25 89.9313 37.0421 98.1786 37.0421C106.426 37.0421 106.426 25 98.1786 25Z" fill="#232F5B"/>
<path d="M132 40.7761C132 18.5561 150.02 0.536133 172.24 0.536133C194.46 0.536133 212.48 18.5561 212.48 40.7761H132Z" fill="url(#paint1_linear_31_527)"/>
</g>
<defs>
<linearGradient id="paint0_linear_31_527" x1="174.111" y1="-50.2065" x2="114.96" y2="104.917" gradientUnits="userSpaceOnUse">
<stop stop-color="#FFCCBD"/>
<stop offset="0.3125" stop-color="#D8B0FF"/>
<stop offset="0.600448" stop-color="#A7CAFF"/>
<stop offset="1" stop-color="#E1FFA3"/>
</linearGradient>
<linearGradient id="paint1_linear_31_527" x1="248.111" y1="-98.3066" x2="188.96" y2="56.8167" gradientUnits="userSpaceOnUse">
<stop stop-color="#FFCCBD"/>
<stop offset="0.3125" stop-color="#D8B0FF"/>
<stop offset="0.600448" stop-color="#A7CAFF"/>
<stop offset="1" stop-color="#E1FFA3"/>
</linearGradient>
<clipPath id="clip0_31_527">
<rect width="270" height="112" fill="white" transform="translate(0.333313 0.536133)"/>
</clipPath>
</defs>
</svg>
